<svg width="512" height="288" viewBox="0 0 512 288">
    <!--Background/Fond-->
    <rect width="100%" height="100%" fill="#212121" />

    <!--Le texte: HTML-->
    <path
        d="M254 155.4V142.8H284.6V155.4H254ZM278.6 185V113H295.2V185H278.6ZM248 185V113H264.6V185H248ZM304.18 125.6V113H353.18V125.6H304.18ZM320.38 185V113H336.98V185H320.38ZM387.707 185L403.307 113H415.307L399.707 185H387.707ZM387.307 185L371.707 113H383.707L399.307 185H387.307ZM362.207 185V113H378.807V185H362.207ZM408.207 185V113H424.807V185H408.207ZM451.416 185V172.4H474.816V185H451.416ZM437.816 185V113H454.416V185H437.816Z"
        fill="#EF652A" />

    <!--Le logo HTML-->
    <g>
        <path d="M53.43 230.424L37.333 48.2666H214.4L198.303 230.424L125.67 251.015" fill="#E34F26" />
        <path d="M126.063 235.176L184.561 218.94L198.303 62.9184H126.063" fill="#EF652A" />
        <path
            d="M126.063 130.633H96.617L94.654 107.666H126.063V85.49H70.3122L76.2014 153.205H126.063V130.633ZM125.67 188.844L100.936 182.112L99.3653 164.293H77.3792L80.1275 199.536L125.67 212.208V188.844Z"
            fill="#EBEBEB" />
        <path
            d="M125.67 130.633V153.205H153.153L150.404 182.112L125.67 188.844V212.208L171.213 199.536L177.494 130.633H125.67ZM125.67 85.49V107.666H179.457L181.42 85.49H125.67Z"
            fill="white" />
    </g>
</svg>